<svg xmlns="http://www.w3.org/2000/svg" width="1280" height="640" viewBox="0 0 1280 640">
  <defs>
    <linearGradient id="bg" x1="0" y1="0" x2="0" y2="1">
      <stop offset="0%" stop-color="#0f172a"/>
      <stop offset="100%" stop-color="#020617"/>
    </linearGradient>
    <linearGradient id="brand" x1="0" y1="0" x2="1" y2="1">
      <stop offset="0%" stop-color="#fbbf24"/>
      <stop offset="50%" stop-color="#f59e0b"/>
      <stop offset="100%" stop-color="#d97706"/>
    </linearGradient>
    <linearGradient id="accent-line" x1="0" y1="0" x2="1" y2="0">
      <stop offset="0%" stop-color="#d97706"/>
      <stop offset="50%" stop-color="#0d9488"/>
      <stop offset="100%" stop-color="transparent"/>
    </linearGradient>
    <radialGradient id="glow" cx="30%" cy="30%" r="60%">
      <stop offset="0%" stop-color="rgba(245, 158, 11, 0.12)"/>
      <stop offset="100%" stop-color="transparent"/>
    </radialGradient>
    <radialGradient id="teal-glow" cx="70%" cy="70%" r="50%">
      <stop offset="0%" stop-color="rgba(13, 148, 136, 0.06)"/>
      <stop offset="100%" stop-color="transparent"/>
    </radialGradient>
  </defs>

  <!-- Background -->
  <rect width="1280" height="640" fill="url(#bg)"/>
  <rect width="1280" height="640" fill="url(#glow)"/>
  <rect width="1280" height="640" fill="url(#teal-glow)"/>

  <!-- Subtle grid lines -->
  <g stroke="#334155" stroke-width="0.5" opacity="0.15">
    <line x1="0" y1="160" x2="1280" y2="160"/>
    <line x1="0" y1="320" x2="1280" y2="320"/>
    <line x1="0" y1="480" x2="1280" y2="480"/>
    <line x1="320" y1="0" x2="320" y2="640"/>
    <line x1="640" y1="0" x2="640" y2="640"/>
    <line x1="960" y1="0" x2="960" y2="640"/>
  </g>

  <!-- Accent line -->
  <rect x="120" y="290" width="200" height="2" fill="url(#accent-line)" rx="1"/>

  <!-- Terminal bracket decoration -->
  <text x="120" y="260" font-family="'JetBrains Mono', 'SF Mono', 'Fira Code', monospace" font-size="14" fill="#64748b" letter-spacing="0.1em" text-transform="uppercase">TERMINAL SESSION MANAGER</text>

  <!-- Title -->
  <text x="120" y="370" font-family="'Satoshi', 'DM Sans', 'Inter', system-ui, sans-serif" font-size="72" font-weight="900" fill="url(#brand)">Agent of Empires</text>

  <!-- Tagline -->
  <text x="120" y="420" font-family="'DM Sans', 'Inter', system-ui, sans-serif" font-size="24" fill="#cbd5e1">Terminal session manager for AI coding agents</text>

  <!-- Agent names -->
  <g font-family="'JetBrains Mono', 'SF Mono', monospace" font-size="14" fill="#64748b">
    <text x="120" y="480">Claude Code</text>
    <text x="120" y="480" dx="130" fill="#334155">|</text>
    <text x="120" y="480" dx="145">Gemini CLI</text>
    <text x="120" y="480" dx="260" fill="#334155">|</text>
    <text x="120" y="480" dx="275">OpenCode</text>
    <text x="120" y="480" dx="375" fill="#334155">|</text>
    <text x="120" y="480" dx="390">Codex</text>
    <text x="120" y="480" dx="460" fill="#334155">|</text>
    <text x="120" y="480" dx="475">Mistral Vibe</text>
  </g>

  <!-- Teal agent node decorations -->
  <circle cx="1060" cy="200" r="6" fill="#0d9488" opacity="0.6"/>
  <circle cx="1120" cy="280" r="4" fill="#0d9488" opacity="0.4"/>
  <circle cx="1000" cy="340" r="5" fill="#0d9488" opacity="0.5"/>
  <circle cx="1140" cy="160" r="3" fill="#0d9488" opacity="0.3"/>
  <circle cx="1080" cy="380" r="4" fill="#0d9488" opacity="0.35"/>

  <!-- Connecting lines between nodes -->
  <g stroke="#0d9488" stroke-width="1" opacity="0.15">
    <line x1="1060" y1="200" x2="1120" y2="280"/>
    <line x1="1120" y1="280" x2="1000" y2="340"/>
    <line x1="1060" y1="200" x2="1140" y2="160"/>
    <line x1="1000" y1="340" x2="1080" y2="380"/>
  </g>

  <!-- Bottom border gradient -->
  <rect x="0" y="636" width="1280" height="4" fill="url(#accent-line)"/>
</svg>
