<svg xmlns="http://www.w3.org/2000/svg" viewBox="0 0 800 800">
  <defs>
    <linearGradient id="win-back" x1="0" y1="0" x2="0" y2="1">
      <stop offset="0%" stop-color="#78350f"/>
      <stop offset="100%" stop-color="#451a03"/>
    </linearGradient>
    <linearGradient id="win-mid" x1="0" y1="0" x2="0" y2="1">
      <stop offset="0%" stop-color="#92400e"/>
      <stop offset="100%" stop-color="#78350f"/>
    </linearGradient>
    <linearGradient id="win-front" x1="0" y1="0" x2="0" y2="1">
      <stop offset="0%" stop-color="#f59e0b"/>
      <stop offset="100%" stop-color="#d97706"/>
    </linearGradient>
    <linearGradient id="titlebar" x1="0" y1="0" x2="0" y2="1">
      <stop offset="0%" stop-color="#fbbf24"/>
      <stop offset="100%" stop-color="#f59e0b"/>
    </linearGradient>
  </defs>

  <!-- Circular background -->
  <circle cx="400" cy="400" r="400" fill="#0f172a"/>

  <g transform="translate(400, 400) scale(3.8) translate(-64, -64)">
    <rect x="10" y="38" width="76" height="60" rx="6" fill="url(#win-back)" opacity="0.6"/>
    <rect x="20" y="28" width="76" height="60" rx="6" fill="url(#win-mid)" opacity="0.7"/>
    <g>
      <rect x="32" y="18" width="82" height="66" rx="6" fill="url(#win-front)"/>
      <rect x="32" y="18" width="82" height="18" rx="6" fill="url(#titlebar)"/>
      <rect x="32" y="30" width="82" height="6" fill="url(#titlebar)"/>
      <circle cx="46" cy="28" r="2.8" fill="#b45309" opacity="0.55"/>
      <circle cx="55" cy="28" r="2.8" fill="#b45309" opacity="0.55"/>
      <circle cx="64" cy="28" r="2.8" fill="#b45309" opacity="0.55"/>
      <rect x="36" y="39" width="74" height="41" rx="3" fill="#b45309" opacity="0.22"/>
      <text x="45" y="65" font-family="'Courier New', monospace" font-size="20" font-weight="bold" fill="#fef3c7" opacity="0.85">$</text>
      <rect x="64" y="51" width="9" height="17" rx="2" fill="#fef3c7" opacity="0.75"/>
    </g>
  </g>
</svg>
