<svg xmlns="http://www.w3.org/2000/svg" width="1280" height="640" viewBox="0 0 1280 640">
  <defs>
    <linearGradient id="bg" x1="0" y1="0" x2="0" y2="1">
      <stop offset="0%" stop-color="#0f172a"/>
      <stop offset="100%" stop-color="#020617"/>
    </linearGradient>
    <linearGradient id="brand" x1="0" y1="0" x2="1" y2="1">
      <stop offset="0%" stop-color="#fbbf24"/>
      <stop offset="50%" stop-color="#f59e0b"/>
      <stop offset="100%" stop-color="#d97706"/>
    </linearGradient>
    <linearGradient id="prompt-grad" x1="0" y1="0" x2="0" y2="1">
      <stop offset="0%" stop-color="#fbbf24"/>
      <stop offset="50%" stop-color="#f59e0b"/>
      <stop offset="100%" stop-color="#b45309"/>
    </linearGradient>
    <linearGradient id="accent-line" x1="0" y1="0" x2="1" y2="0">
      <stop offset="0%" stop-color="#d97706"/>
      <stop offset="50%" stop-color="#0d9488"/>
      <stop offset="100%" stop-color="#0d9488" stop-opacity="0"/>
    </linearGradient>
    <radialGradient id="glow" cx="30%" cy="40%" r="60%">
      <stop offset="0%" stop-color="#f59e0b" stop-opacity="0.12"/>
      <stop offset="100%" stop-color="#f59e0b" stop-opacity="0"/>
    </radialGradient>
    <radialGradient id="teal-glow" cx="70%" cy="70%" r="50%">
      <stop offset="0%" stop-color="#0d9488" stop-opacity="0.06"/>
      <stop offset="100%" stop-color="#0d9488" stop-opacity="0"/>
    </radialGradient>
  </defs>

  <!-- Background -->
  <rect width="1280" height="640" fill="url(#bg)"/>
  <rect width="1280" height="640" fill="url(#glow)"/>
  <rect width="1280" height="640" fill="url(#teal-glow)"/>

  <!-- Subtle grid lines -->
  <g stroke="#334155" stroke-width="0.5" opacity="0.15">
    <line x1="0" y1="160" x2="1280" y2="160"/>
    <line x1="0" y1="320" x2="1280" y2="320"/>
    <line x1="0" y1="480" x2="1280" y2="480"/>
    <line x1="320" y1="0" x2="320" y2="640"/>
    <line x1="640" y1="0" x2="640" y2="640"/>
    <line x1="960" y1="0" x2="960" y2="640"/>
  </g>

  <!-- Logo mark (>_ prompt) -->
  <g transform="translate(120, 180)">
    <!-- > prompt -->
    <path d="M 0,0 L 50,35 L 0,70"
          stroke="url(#prompt-grad)" stroke-width="8"
          stroke-linecap="round" stroke-linejoin="round" fill="none"/>
    <!-- _ cursor -->
    <line x1="54" y1="70" x2="78" y2="70"
          stroke="#0d9488" stroke-width="8" stroke-linecap="round"/>
  </g>

  <!-- Accent line -->
  <rect x="120" y="310" width="200" height="2" fill="url(#accent-line)" rx="1"/>

  <!-- Terminal bracket decoration -->
  <text x="120" y="290" font-family="'JetBrains Mono', 'SF Mono', 'Fira Code', monospace" font-size="14" fill="#64748b" letter-spacing="0.1em">TERMINAL SESSION MANAGER</text>

  <!-- Title -->
  <text x="120" y="400" font-family="'Satoshi', 'DM Sans', 'Inter', system-ui, sans-serif" font-size="72" font-weight="900" fill="url(#brand)">Agent of Empires</text>

  <!-- Tagline -->
  <text x="120" y="450" font-family="'DM Sans', 'Inter', system-ui, sans-serif" font-size="24" fill="#cbd5e1">Terminal session manager for AI coding agents</text>

  <!-- Feature pills -->
  <g font-family="'JetBrains Mono', 'SF Mono', monospace" font-size="13" fill="#94a3b8">
    <text x="120" y="510">Git worktrees</text>
    <text x="120" y="510" dx="130" fill="#334155">|</text>
    <text x="120" y="510" dx="145">Docker sandbox</text>
    <text x="120" y="510" dx="295" fill="#334155">|</text>
    <text x="120" y="510" dx="310">TUI dashboard</text>
    <text x="120" y="510" dx="445" fill="#334155">|</text>
    <text x="120" y="510" dx="460">tmux</text>
  </g>

  <!-- Teal agent node decorations -->
  <circle cx="1060" cy="200" r="6" fill="#0d9488" opacity="0.6"/>
  <circle cx="1120" cy="280" r="4" fill="#0d9488" opacity="0.4"/>
  <circle cx="1000" cy="340" r="5" fill="#0d9488" opacity="0.5"/>
  <circle cx="1140" cy="160" r="3" fill="#0d9488" opacity="0.3"/>
  <circle cx="1080" cy="380" r="4" fill="#0d9488" opacity="0.35"/>

  <!-- Connecting lines between nodes -->
  <g stroke="#0d9488" stroke-width="1" opacity="0.15">
    <line x1="1060" y1="200" x2="1120" y2="280"/>
    <line x1="1120" y1="280" x2="1000" y2="340"/>
    <line x1="1060" y1="200" x2="1140" y2="160"/>
    <line x1="1000" y1="340" x2="1080" y2="380"/>
  </g>

  <!-- Bottom border gradient -->
  <rect x="0" y="636" width="1280" height="4" fill="url(#accent-line)"/>
</svg>
